<?xml version="1.0" encoding="UTF-8" standalone="no"?>
<svg
   xmlns:dc="http://purl.org/dc/elements/1.1/"
   xmlns:cc="http://creativecommons.org/ns#"
   xmlns:rdf="http://www.w3.org/1999/02/22-rdf-syntax-ns#"
   xmlns:svg="http://www.w3.org/2000/svg"
   xmlns="http://www.w3.org/2000/svg"
   xmlns:sodipodi="http://sodipodi.sourceforge.net/DTD/sodipodi-0.dtd"
   xmlns:inkscape="http://www.inkscape.org/namespaces/inkscape"
   inkscape:version="1.0 (4035a4fb49, 2020-05-01)"
   sodipodi:docname="Isotipo.svg"
   id="svg34"
   version="1.1"
   width="512pt"
   viewBox="0 0 512 512.00002"
   height="512pt">
  <metadata
     id="metadata40">
    <rdf:RDF>
      <cc:Work
         rdf:about="">
        <dc:format>image/svg+xml</dc:format>
        <dc:type
           rdf:resource="http://purl.org/dc/dcmitype/StillImage" />
        <dc:title></dc:title>
      </cc:Work>
    </rdf:RDF>
  </metadata>
  <defs
     id="defs38">
    <rect
       id="rect61"
       height="60.644639"
       width="136.2019"
       y="404.62899"
       x="76.55143" />
  </defs>
  <sodipodi:namedview
     inkscape:current-layer="svg34"
     inkscape:window-maximized="1"
     inkscape:window-y="-8"
     inkscape:window-x="-8"
     inkscape:cy="341.33333"
     inkscape:cx="248.54372"
     inkscape:zoom="0.75439478"
     showgrid="false"
     id="namedview36"
     inkscape:window-height="705"
     inkscape:window-width="1366"
     inkscape:pageshadow="2"
     inkscape:pageopacity="0"
     guidetolerance="10"
     gridtolerance="10"
     objecttolerance="10"
     borderopacity="1"
     bordercolor="#666666"
     pagecolor="#ffffff"
     inkscape:document-rotation="0" />
  <g
     transform="matrix(1.0448605,0,0,1.0448605,-11.484286,34.974856)"
     id="g88">
    <path
       d="m 419.95142,216.25521 c 0,-90.50371 -73.17265,-163.87011 -163.43703,-163.87011 -90.26436,0 -163.436996,73.3664 -163.436996,163.87011 0,90.5037 73.172636,163.87009 163.436996,163.87009 90.26438,0 163.43703,-73.36639 163.43703,-163.87009 z m 0,0"
       fill="#89c8fd"
       id="path2"
       style="fill:#f9f9f9;stroke-width:0.972541" />
    <path
       d="m 256.51439,52.3851 c -8.3882,0 -16.63203,0.63443 -24.67833,1.857701 78.55204,11.928888 138.75488,79.919689 138.75488,162.012409 0,82.09271 -60.20284,150.0835 -138.75488,162.01239 8.0463,1.22327 16.29013,1.8577 24.67833,1.8577 90.26438,0 163.43703,-73.36639 163.43703,-163.87009 0,-90.50371 -73.17265,-163.87011 -163.43703,-163.87011 z m 0,0"
       fill="#60b6ff"
       id="path4"
       style="fill:#f9f9f9;stroke-width:0.972541" />
    <g
       fill="#baeb6c"
       id="g16"
       transform="matrix(0.97254537,0,0,0.97254537,44.450123,-70.212612)"
       style="fill:#550000">
      <g
         id="g149">
        <path
           style="fill:#550000"
           id="path6"
           d="m 196.20703,191.54297 c -25.88672,16.22265 -45.30469,42.17578 -30.74219,71.3789 14.5625,29.19922 46.92188,17.84375 76.85547,13.78907 29.9336,-4.05469 7.28125,88.41406 25.07813,111.125 17.79687,22.71093 67.95312,-22.71094 63.10156,-51.91407 -7.1875,-43.23437 -9.70703,-58.40234 48.53906,-89.22265 l 0.15625,-0.0586 C 359.5625,180.16016 300.13281,130.83203 228.57422,126.39844 l -0.008,0.2539 c 0,0 -6.47266,48.66797 -32.35938,64.89063 z m 0,0" />
      </g>
      <path
         d="m 323.33984,163.23828 c 0.0117,0.008 0.0234,0.0195 0.0352,0.0273 -0.0117,-0.008 -0.0234,-0.0156 -0.0352,-0.0273 z m 0,0"
         id="path8"
         style="fill:#550000" />
      <path
         d="m 343.89062,182.89453 c 0,0.004 0.004,0.008 0.008,0.008 -0.004,-0.004 -0.004,-0.004 -0.008,-0.008 z m 0,0"
         id="path10"
         style="fill:#550000" />
      <path
         d="m 106.41016,370.80078 c -7.773441,-11.85547 13.7539,-39.74219 18.60547,-60.83203 C 129.87109,288.87891 100.74609,290.5 91.847656,283.19922 82.949219,275.89844 70.8125,244.26562 61.914062,236.96484 l -1.421874,-1.12109 C 53.710938,254.125 50,273.90625 50,294.55469 50,350.25 76.953125,399.625 118.49219,430.30078 l 0.0508,-3.53125 c 0,0 6.47266,-27.57812 -12.13281,-55.96875 z m 0,0"
         id="path12"
         style="fill:#550000" />
      <path
         d="m 330.5,335.92187 c -0.0352,-0.21093 -0.0703,-0.41796 -0.10547,-0.6289 -3.21484,12.98828 -7.93359,25.38281 -13.96094,36.98437 9.5586,-11.28125 15.94532,-25.03515 14.06641,-36.35547 z m 0,0"
         id="path14"
         style="fill:#550000" />
    </g>
    <path
       d="m 284.36002,62.149992 -0.0293,0.245299 c 0,0 -0.87909,3.887443 -2.76731,9.731774 55.11744,26.781805 92.11206,83.412875 92.12108,147.224445 8.08483,-9.1845 22.1056,-17.53292 45.84051,-27.46051 l 0.1565,-0.043 C 406.50693,125.73195 353.27978,72.732181 284.36002,62.149992 Z m 0,0"
       fill="#96d629"
       id="path18"
       style="fill:#550000;fill-opacity:1;stroke-width:0.972541" />
    <path
       d="m 87.844403,258.92664 c -2.259999,-9.21331 -3.780385,-18.67857 -4.522189,-28.3284 -3.553809,-46.1266 11.066332,-90.87689 41.167406,-126.0057 30.10109,-35.128799 72.08225,-56.431744 118.20657,-59.981793 3.341,-0.258548 6.25819,2.250775 6.51453,5.582704 0.25855,3.341007 -2.24097,6.259005 -5.58271,6.514528 -42.89212,3.305361 -81.93154,23.114131 -109.92402,55.783071 -27.99249,32.66893 -41.587625,74.27949 -38.283806,117.1784 6.816666,88.55791 84.407276,155.03961 172.952346,148.22289 42.89212,-3.30537 81.93152,-23.11414 109.92402,-55.78308 27.99324,-32.66588 41.58762,-74.27949 38.28455,-117.17537 -0.25854,-3.341 2.24096,-6.259 5.58196,-6.51755 3.34174,-0.25553 6.25821,2.25077 6.51452,5.58271 3.55455,46.12962 -11.0656,90.87993 -41.16742,126.0057 -30.10109,35.12882 -72.08225,56.43177 -118.20582,59.98483 -33.70134,2.59613 -66.6683,-4.51216 -95.68415,-20.27318 -10.69517,-5.80947 -20.85353,-12.79453 -30.31398,-20.90252 -27.77999,-23.80942 -46.915039,-55.04479 -55.461807,-89.88724 z"
       fill="#09a66d"
       id="path20"
       style="stroke-width:0.797023"
       sodipodi:nodetypes="scscccscccccccsscs" />
    <g
       id="g157"
       transform="matrix(0.94602092,0,0,0.94602092,21.475309,-64.824904)"
       style="fill:#09a66d;fill-opacity:1">
      <path
         style="fill:#09a66d;fill-opacity:1;stroke-width:0.743911"
         id="path22"
         fill="#49cb5c"
         d="m 318.04405,351.12178 c -61.31595,-0.55459 -110.40044,-69.77201 -110.40044,-69.77201 0,0 50.33118,-68.31944 111.64666,-67.76773 61.31547,0.55174 110.39996,69.76915 110.39996,69.76915 0,0 -50.33072,68.32233 -111.64618,67.77059 z m 0,0" />
      <path
         style="fill:#09a66d;fill-opacity:1;stroke-width:0.743911"
         id="path24"
         fill="#07b128"
         d="m 319.29027,213.58204 c -11.70962,-0.10553 -23.01279,2.3048 -33.64611,6.26757 59.25791,3.6688 106.02303,69.60002 106.02303,69.60002 0,0 -32.94728,44.7181 -78.00296,61.50348 1.45369,0.0906 2.91182,0.15396 4.37982,0.16867 61.31546,0.55174 111.64618,-67.77059 111.64618,-67.77059 0,0 -49.08449,-69.21741 -110.39996,-69.76915 z m 0,0" />
    </g>
    <g
       id="g153"
       transform="matrix(0.97184331,0,0,0.97184331,29.270534,-58.587098)"
       style="fill:#09a66d;fill-opacity:1">
      <path
         style="fill:#09a66d;fill-opacity:1;stroke-width:0.552962"
         id="path28"
         fill="#49cb5c"
         d="m 265.43441,77.271489 c 30.96107,0.642294 55.34041,35.890571 55.34041,35.890571 0,0 -25.8177,34.20796 -56.77876,33.56567 -30.96028,-0.64028 -55.34041,-35.89057 -55.34041,-35.89057 0,0 25.81769,-34.207965 56.77876,-33.565671 z m 0,0" />
      <path
         style="fill:#09a66d;fill-opacity:1;stroke-width:0.552962"
         id="path30"
         fill="#07b128"
         d="m 320.77482,113.16206 c 0,0 -5.54564,-8.0142 -14.7038,-16.470287 -9.21839,9.882687 -28.876,27.558197 -51.2144,27.094067 -16.19528,-0.33518 -30.59036,-10.1415 -40.6358,-19.41828 -3.55833,3.81471 -5.56437,6.47161 -5.56437,6.47161 0,0 24.37933,35.24828 55.34041,35.89057 30.96026,0.64028 56.77796,-33.56768 56.77796,-33.56768 z m 0,0" />
    </g>
    <text
       xml:space="preserve"
       id="text59"
       style="font-size:16px;line-height:1.25;font-family:'Franklin Gothic Heavy';-inkscape-font-specification:'Franklin Gothic Heavy, ';letter-spacing:3.465px;white-space:pre;shape-inside:url(#rect61);"
       transform="matrix(1.5023029,0,0,1.5023029,142.13183,-442.88541)"><tspan
         x="76.550781"
         y="441.40973"><tspan
           style="font-style:normal;font-variant:normal;font-weight:bold;font-stretch:normal;font-size:40px;font-family:'Roboto Slab';-inkscape-font-specification:'Roboto Slab Bold';fill:#550000">GEA</tspan></tspan></text>
  </g>
</svg>
